<?xml version="1.0" encoding="UTF-8"?>
<svg width="242px" height="340px" viewBox="0 0 242 340" version="1.1" xmlns="http://www.w3.org/2000/svg" xmlns:xlink="http://www.w3.org/1999/xlink">
    <!-- Generator: Sketch 48.2 (47327) - http://www.bohemiancoding.com/sketch -->
    <title>Card 7</title>
    <desc>Created with Sketch.</desc>
    <defs></defs>
    <g id="Card-deck" stroke="none" stroke-width="1" fill="none" fill-rule="evenodd" transform="translate(-1368.000000, -825.000000)">
        <g id="Coeur" transform="translate(40.000000, 825.000000)">
            <g id="Card-7" transform="translate(1328.000000, 0.000000)">
                <rect id="BG" fill="#FFFFFF" x="0" y="0" width="242" height="340" rx="20"></rect>
                <g id="Symbol-/-Coeur" transform="translate(104.000000, 202.000000)" fill="#DB362A">
                    <path d="M23.5653637,0.649309697 C18.6592511,0.738687308 17.6839179,7.35858899 17.6839179,7.35858899 C17.6839179,7.35858899 16.5517749,0.738687308 11.6456623,0.649309697 C6.73942998,0.559790217 3.72018248,5.65885383 5.3808105,11.026334 C7.04131882,16.3936723 8.69584203,17.601405 11.302955,21.4927359 C13.9099483,25.3842087 17.7028308,32.1159034 17.6839179,33.7037037 C17.6651247,32.1159034 21.300958,25.3842087 23.9080709,21.4927359 C26.5151839,17.601405 28.1697071,16.3936723 29.8302155,11.026334 C31.4907238,5.65885383 28.471596,0.559790217 23.5653637,0.649309697" id="Coeur"></path>
                </g>
                <g id="Symbol-/-Coeur" transform="translate(146.000000, 254.000000)" fill="#DB362A">
                    <path d="M23.5653637,0.649309697 C18.6592511,0.738687308 17.6839179,7.35858899 17.6839179,7.35858899 C17.6839179,7.35858899 16.5517749,0.738687308 11.6456623,0.649309697 C6.73942998,0.559790217 3.72018248,5.65885383 5.3808105,11.026334 C7.04131882,16.3936723 8.69584203,17.601405 11.302955,21.4927359 C13.9099483,25.3842087 17.7028308,32.1159034 17.6839179,33.7037037 C17.6651247,32.1159034 21.300958,25.3842087 23.9080709,21.4927359 C26.5151839,17.601405 28.1697071,16.3936723 29.8302155,11.026334 C31.4907238,5.65885383 28.471596,0.559790217 23.5653637,0.649309697" id="Coeur"></path>
                </g>
                <g id="Symbol-/-Coeur" transform="translate(58.000000, 254.000000)" fill="#DB362A">
                    <path d="M23.5653637,0.649309697 C18.6592511,0.738687308 17.6839179,7.35858899 17.6839179,7.35858899 C17.6839179,7.35858899 16.5517749,0.738687308 11.6456623,0.649309697 C6.73942998,0.559790217 3.72018248,5.65885383 5.3808105,11.026334 C7.04131882,16.3936723 8.69584203,17.601405 11.302955,21.4927359 C13.9099483,25.3842087 17.7028308,32.1159034 17.6839179,33.7037037 C17.6651247,32.1159034 21.300958,25.3842087 23.9080709,21.4927359 C26.5151839,17.601405 28.1697071,16.3936723 29.8302155,11.026334 C31.4907238,5.65885383 28.471596,0.559790217 23.5653637,0.649309697" id="Coeur"></path>
                </g>
                <g id="Symbol-/-Coeur" transform="translate(58.000000, 154.000000)" fill="#DB362A">
                    <path d="M23.5653637,0.649309697 C18.6592511,0.738687308 17.6839179,7.35858899 17.6839179,7.35858899 C17.6839179,7.35858899 16.5517749,0.738687308 11.6456623,0.649309697 C6.73942998,0.559790217 3.72018248,5.65885383 5.3808105,11.026334 C7.04131882,16.3936723 8.69584203,17.601405 11.302955,21.4927359 C13.9099483,25.3842087 17.7028308,32.1159034 17.6839179,33.7037037 C17.6651247,32.1159034 21.300958,25.3842087 23.9080709,21.4927359 C26.5151839,17.601405 28.1697071,16.3936723 29.8302155,11.026334 C31.4907238,5.65885383 28.471596,0.559790217 23.5653637,0.649309697" id="Coeur"></path>
                </g>
                <g id="Symbol-/-Coeur" transform="translate(146.000000, 154.000000)" fill="#DB362A">
                    <path d="M23.5653637,0.649309697 C18.6592511,0.738687308 17.6839179,7.35858899 17.6839179,7.35858899 C17.6839179,7.35858899 16.5517749,0.738687308 11.6456623,0.649309697 C6.73942998,0.559790217 3.72018248,5.65885383 5.3808105,11.026334 C7.04131882,16.3936723 8.69584203,17.601405 11.302955,21.4927359 C13.9099483,25.3842087 17.7028308,32.1159034 17.6839179,33.7037037 C17.6651247,32.1159034 21.300958,25.3842087 23.9080709,21.4927359 C26.5151839,17.601405 28.1697071,16.3936723 29.8302155,11.026334 C31.4907238,5.65885383 28.471596,0.559790217 23.5653637,0.649309697" id="Coeur"></path>
                </g>
                <g id="Symbol-/-Coeur" transform="translate(146.000000, 54.000000)" fill="#DB362A">
                    <path d="M23.5653637,0.649309697 C18.6592511,0.738687308 17.6839179,7.35858899 17.6839179,7.35858899 C17.6839179,7.35858899 16.5517749,0.738687308 11.6456623,0.649309697 C6.73942998,0.559790217 3.72018248,5.65885383 5.3808105,11.026334 C7.04131882,16.3936723 8.69584203,17.601405 11.302955,21.4927359 C13.9099483,25.3842087 17.7028308,32.1159034 17.6839179,33.7037037 C17.6651247,32.1159034 21.300958,25.3842087 23.9080709,21.4927359 C26.5151839,17.601405 28.1697071,16.3936723 29.8302155,11.026334 C31.4907238,5.65885383 28.471596,0.559790217 23.5653637,0.649309697" id="Coeur"></path>
                </g>
                <g id="Symbol-/-Coeur" transform="translate(58.000000, 54.000000)" fill="#DB362A">
                    <path d="M23.5653637,0.649309697 C18.6592511,0.738687308 17.6839179,7.35858899 17.6839179,7.35858899 C17.6839179,7.35858899 16.5517749,0.738687308 11.6456623,0.649309697 C6.73942998,0.559790217 3.72018248,5.65885383 5.3808105,11.026334 C7.04131882,16.3936723 8.69584203,17.601405 11.302955,21.4927359 C13.9099483,25.3842087 17.7028308,32.1159034 17.6839179,33.7037037 C17.6651247,32.1159034 21.300958,25.3842087 23.9080709,21.4927359 C26.5151839,17.601405 28.1697071,16.3936723 29.8302155,11.026334 C31.4907238,5.65885383 28.471596,0.559790217 23.5653637,0.649309697" id="Coeur"></path>
                </g>
                <g id="Small-Carreau" transform="translate(14.000000, 62.000000)" fill="#DB362A">
                    <g id="Symbol-/-Coeur">
                        <path d="M14.8125143,0.408137524 C11.7286721,0.464317736 11.1156055,4.62539879 11.1156055,4.62539879 C11.1156055,4.62539879 10.4039728,0.464317736 7.32013058,0.408137524 C4.23621313,0.351868137 2.33840042,3.55699384 3.38222374,6.93083852 C4.42597183,10.304594 5.46595785,11.0637403 7.10471458,13.5097197 C8.74339607,15.9557883 11.1274937,20.1871393 11.1156055,21.1851852 C11.1037926,20.1871393 13.3891736,15.9557883 15.0279303,13.5097197 C16.666687,11.0637403 17.7066731,10.304594 18.7504211,6.93083852 C19.7941692,3.55699384 17.8964318,0.351868137 14.8125143,0.408137524" id="Coeur"></path>
                    </g>
                    <g id="Symbol-/-Coeur" transform="translate(202.888889, 206.944724) rotate(180.000000) translate(-202.888889, -206.944724) translate(191.777778, 195.889447)">
                        <path d="M14.8125143,0.408137524 C11.7286721,0.464317736 11.1156055,4.62539879 11.1156055,4.62539879 C11.1156055,4.62539879 10.4039728,0.464317736 7.32013058,0.408137524 C4.23621313,0.351868137 2.33840042,3.55699384 3.38222374,6.93083852 C4.42597183,10.304594 5.46595785,11.0637403 7.10471458,13.5097197 C8.74339607,15.9557883 11.1274937,20.1871393 11.1156055,21.1851852 C11.1037926,20.1871393 13.3891736,15.9557883 15.0279303,13.5097197 C16.666687,11.0637403 17.7066731,10.304594 18.7504211,6.93083852 C19.7941692,3.55699384 17.8964318,0.351868137 14.8125143,0.408137524" id="Coeur"></path>
                    </g>
                </g>
                <g id="Letter-/-Rouge" transform="translate(10.000000, 8.000000)" fill="#DB362A" font-family=".SFNSDisplay, .SF NS Display" font-size="40" font-weight="normal">
                    <text id="A">
                        <tspan x="0" y="39">7</tspan>
                    </text>
                </g>
                <g id="Letter-/-Rouge" transform="translate(215.000000, 310.000000) rotate(180.000000) translate(-215.000000, -310.000000) translate(202.000000, 286.000000)" fill="#DB362A" font-family=".SFNSDisplay, .SF NS Display" font-size="40" font-weight="normal">
                    <text id="A">
                        <tspan x="0" y="39">7</tspan>
                    </text>
                </g>
            </g>
        </g>
    </g>
</svg>